<svg width="31" height="22" viewBox="0 0 31 22" fill="none" xmlns="http://www.w3.org/2000/svg">
<path d="M29.5537 4.17346C29.208 2.88824 28.1947 1.87512 26.9097 1.52905C24.5621 0.886719 15.1715 0.886719 15.1715 0.886719C15.1715 0.886719 5.78131 0.886719 3.43372 1.5047C2.1734 1.8504 1.13538 2.88843 0.789673 4.17346C0.171875 6.52087 0.171875 11.3891 0.171875 11.3891C0.171875 11.3891 0.171875 16.2819 0.789673 18.6047C1.13574 19.8898 2.14868 20.9029 3.4339 21.249C5.80603 21.8915 15.1719 21.8915 15.1719 21.8915C15.1719 21.8915 24.5621 21.8915 26.9097 21.2735C28.1949 20.9276 29.208 19.9145 29.5541 18.6295C30.1717 16.2819 30.1717 11.4138 30.1717 11.4138C30.1717 11.4138 30.1964 6.52087 29.5537 4.17346ZM12.1818 15.8865V6.89166L19.9905 11.3891L12.1818 15.8865Z" fill="#C9D6DF"/>
</svg>
